<svg width="30" height="30" viewBox="0 0 30 30" fill="none" xmlns="http://www.w3.org/2000/svg">
<path d="M25.6089 21.4248L20.5276 16.8048C20.2874 16.5865 19.9718 16.4701 19.6474 16.4801C19.3229 16.4901 19.0151 16.6258 18.7889 16.8586L15.7976 19.9348C15.0776 19.7973 13.6301 19.3461 12.1401 17.8598C10.6501 16.3686 10.1989 14.9173 10.0651 14.2023L13.1389 11.2098C13.3719 10.9837 13.5078 10.6758 13.5178 10.3513C13.5278 10.0268 13.4112 9.71111 13.1926 9.47106L8.57386 4.39106C8.35516 4.15026 8.05121 4.00419 7.72655 3.98389C7.40189 3.96358 7.08211 4.07063 6.83511 4.28231L4.12261 6.60856C3.9065 6.82545 3.77751 7.11412 3.76011 7.41981C3.74136 7.73231 3.38386 15.1348 9.12386 20.8773C14.1314 25.8836 20.4039 26.2498 22.1314 26.2498C22.3839 26.2498 22.5389 26.2423 22.5801 26.2398C22.8858 26.2227 23.1743 26.0931 23.3901 25.8761L25.7151 23.1623C25.9276 22.9161 26.0355 22.5966 26.0156 22.2719C25.9958 21.9473 25.8498 21.6433 25.6089 21.4248Z" fill="#55549D"/>
</svg>
